<svg width="16" height="16" viewBox="0 0 16 16" fill="none" xmlns="http://www.w3.org/2000/svg">
<g id="fa-regular:heart" clip-path="url(#clip0_2340_2526)">
<path id="Vector" d="M14.325 2.01006C12.5188 0.49131 9.72813 0.719435 8 2.47881C6.27188 0.719435 3.48125 0.488185 1.675 2.01006C-0.674996 3.98818 -0.331246 7.21318 1.34375 8.92256L6.825 14.5069C7.1375 14.8257 7.55625 15.0038 8 15.0038C8.44688 15.0038 8.8625 14.8288 9.175 14.5101L14.6563 8.92568C16.3281 7.21631 16.6781 3.99131 14.325 2.01006ZM13.5875 7.86943L8.10625 13.4538C8.03125 13.5288 7.96875 13.5288 7.89375 13.4538L2.4125 7.86943C1.27188 6.70693 1.04063 4.50693 2.64063 3.16006C3.85625 2.13818 5.73125 2.29131 6.90625 3.48818L8 4.60381L9.09375 3.48818C10.275 2.28506 12.15 2.13818 13.3594 3.15693C14.9563 4.50381 14.7188 6.71631 13.5875 7.86943Z" fill="#BDBDBD"/>
</g>
<defs>
<clipPath id="clip0_2340_2526">
<rect width="16" height="16" fill="white"/>
</clipPath>
</defs>
</svg>
