<svg width="25" height="24" viewBox="0 0 25 24" fill="none" xmlns="http://www.w3.org/2000/svg">
<circle cx="12.5" cy="12" r="12" fill="#FEE500"/>
<path d="M12.5348 5.7915C8.80138 5.7915 5.79053 8.20016 5.79053 11.1243C5.79053 13.0223 7.04304 14.6843 8.92181 15.6333L8.28592 18.0083C8.27393 18.0439 8.27208 18.0821 8.28059 18.1187C8.2891 18.1553 8.30762 18.1888 8.33409 18.2154C8.37268 18.2495 8.42234 18.2683 8.47379 18.2684C8.51646 18.265 8.55694 18.2481 8.58941 18.2202L11.3257 16.3752C11.7296 16.431 12.1367 16.4599 12.5445 16.4619C16.2731 16.4619 19.2888 14.0532 19.2888 11.1243C19.2888 8.19534 16.2635 5.7915 12.5348 5.7915Z" fill="#392020"/>
<path d="M8.15092 10.2813H7.41387C7.32251 10.2839 7.23229 10.2605 7.15373 10.2138C7.11885 10.192 7.08887 10.1631 7.06565 10.1292C7.04244 10.0952 7.02651 10.0567 7.01885 10.0163C7.0165 9.99067 7.0165 9.96491 7.01885 9.93927C7.01656 9.8913 7.02587 9.84345 7.046 9.79984C7.06612 9.75624 7.09647 9.71814 7.13446 9.68876C7.21845 9.62794 7.31981 9.59581 7.4235 9.5972H9.6443C9.73638 9.59396 9.82722 9.61921 9.90444 9.66947C9.94014 9.69036 9.97076 9.71894 9.99409 9.75309C10.0174 9.78725 10.0329 9.82615 10.0393 9.867C10.0417 9.89103 10.0417 9.91524 10.0393 9.93927C10.0416 9.98794 10.0323 10.0364 10.0122 10.0808C9.99211 10.1252 9.96178 10.1642 9.92371 10.1945C9.84177 10.2553 9.74138 10.286 9.63948 10.2813H8.92652V12.8152C8.92941 12.8692 8.92106 12.9232 8.90198 12.9738C8.88291 13.0243 8.85353 13.0704 8.81572 13.1091C8.77945 13.146 8.73586 13.175 8.68774 13.194C8.63962 13.2131 8.58804 13.2219 8.53631 13.2199C8.44584 13.2224 8.35728 13.1935 8.28581 13.138C8.21776 13.0838 8.17158 13.0068 8.15574 12.9212C8.15098 12.886 8.15098 12.8504 8.15574 12.8152L8.15092 10.2813Z" fill="#FEE500"/>
<path d="M10.2519 9.78501C10.273 9.70574 10.3228 9.63709 10.3916 9.59231C10.4648 9.55078 10.5483 9.53075 10.6324 9.5345H10.8155C10.9048 9.5313 10.9932 9.55299 11.0708 9.59713C11.1531 9.65247 11.2116 9.73672 11.2346 9.83318L12.1981 12.555C12.2231 12.626 12.244 12.6984 12.2607 12.7718C12.2623 12.8023 12.2623 12.8328 12.2607 12.8633C12.2623 12.9103 12.2537 12.957 12.2354 13.0003C12.2171 13.0435 12.1895 13.0823 12.1547 13.1138C12.121 13.1484 12.0804 13.1757 12.0357 13.1939C11.9909 13.2122 11.9429 13.2209 11.8946 13.2198C11.8203 13.2272 11.7457 13.2094 11.6827 13.1692C11.6198 13.129 11.5723 13.0687 11.5477 12.9982L11.3454 12.4057H10.0784L9.87611 12.9982C9.85218 13.0701 9.80405 13.1315 9.73992 13.1719C9.6758 13.2123 9.59964 13.2292 9.52444 13.2198C9.44298 13.2219 9.36319 13.1965 9.29802 13.1475C9.23454 13.097 9.1917 13.0251 9.17759 12.9452C9.17504 12.918 9.17504 12.8906 9.17759 12.8633C9.16932 12.8155 9.16932 12.7666 9.17759 12.7188C9.17759 12.6658 9.21131 12.608 9.23058 12.555L10.2519 9.78501ZM10.7336 10.4161L10.2759 11.8613H11.1864L10.7336 10.4161Z" fill="#FEE500"/>
<path d="M12.371 9.93928C12.3661 9.83117 12.4042 9.72553 12.477 9.64543C12.514 9.60811 12.5584 9.57895 12.6074 9.55987C12.6563 9.54078 12.7087 9.53215 12.7612 9.53458C12.8515 9.53353 12.9395 9.56234 13.0117 9.6165C13.0786 9.67301 13.1231 9.75161 13.137 9.83808C13.1417 9.87163 13.1417 9.90573 13.137 9.93928V12.4732H14.4618C14.5536 12.472 14.6438 12.497 14.7219 12.5454C14.757 12.5671 14.7871 12.5958 14.8103 12.6299C14.8336 12.6639 14.8494 12.7024 14.8568 12.743C14.8568 12.743 14.8568 12.7911 14.8568 12.8152C14.8591 12.8632 14.8498 12.911 14.8296 12.9546C14.8095 12.9982 14.7792 13.0364 14.7412 13.0657C14.6572 13.1266 14.5558 13.1586 14.4521 13.1572H12.8239C12.7202 13.1639 12.6171 13.1369 12.53 13.0802C12.4521 13.022 12.4002 12.9355 12.3855 12.8393C12.3819 12.7864 12.3819 12.7333 12.3855 12.6803L12.371 9.93928Z" fill="#FEE500"/>
<path d="M14.9436 9.93931C14.9407 9.83151 14.9786 9.72659 15.0496 9.64545C15.1218 9.57985 15.2144 9.54111 15.3118 9.53584C15.4092 9.53057 15.5055 9.55908 15.5843 9.61652C15.6527 9.67253 15.6988 9.7511 15.7144 9.8381C15.7168 9.87178 15.7168 9.90563 15.7144 9.93931V11.1195L16.9332 9.71284C16.9801 9.66486 17.03 9.61985 17.0825 9.578C17.132 9.54854 17.1887 9.53348 17.2463 9.5346C17.3305 9.53414 17.4128 9.55936 17.4824 9.60688C17.5151 9.62893 17.5431 9.65739 17.5646 9.6905C17.5861 9.72361 17.6007 9.7607 17.6076 9.79958C17.6096 9.80912 17.6096 9.81898 17.6076 9.82852C17.6053 9.83963 17.6053 9.85109 17.6076 9.86221C17.6074 9.9129 17.5942 9.96271 17.5691 10.0068C17.5435 10.0534 17.5128 10.097 17.4775 10.1368L16.6779 11.0136L17.6413 12.5069V12.5551C17.6913 12.6241 17.7304 12.7006 17.7569 12.7816V12.8056C17.7625 12.8614 17.7545 12.9178 17.7335 12.9698C17.7125 13.0218 17.6792 13.0679 17.6365 13.1043C17.5561 13.165 17.4578 13.1973 17.3571 13.1958C17.2902 13.1986 17.2237 13.1836 17.1644 13.1524C17.1002 13.1094 17.0474 13.0516 17.0103 12.9838L16.1142 11.5386L15.6855 11.9867V12.7911C15.6884 12.8989 15.6505 13.0039 15.5795 13.085C15.5414 13.1222 15.4961 13.1513 15.4464 13.1703C15.3967 13.1894 15.3436 13.1981 15.2905 13.1958C15.2016 13.1977 15.1148 13.1687 15.0448 13.1139C14.9767 13.0597 14.9305 12.9827 14.9147 12.8972C14.9099 12.862 14.9099 12.8263 14.9147 12.7911L14.9436 9.93931Z" fill="#FEE500"/>
</svg>
