<svg width="16" height="16" viewBox="0 0 16 16" fill="none" xmlns="http://www.w3.org/2000/svg">
<g id="Phone">
<path id="Vector" d="M9.80142 13.9081L9.80871 13.9132C10.4383 14.3141 11.1859 14.4882 11.9279 14.4067C12.6699 14.3253 13.3618 13.9931 13.8895 13.4651L14.3478 13.0067C14.4494 12.9052 14.53 12.7847 14.5849 12.652C14.6399 12.5194 14.6682 12.3772 14.6682 12.2336C14.6682 12.09 14.6399 11.9478 14.5849 11.8151C14.53 11.6825 14.4494 11.5619 14.3478 11.4604L12.4146 9.52863C12.313 9.42705 12.1925 9.34648 12.0599 9.2915C11.9272 9.23653 11.785 9.20823 11.6414 9.20823C11.4978 9.20823 11.3556 9.23653 11.2229 9.2915C11.0903 9.34648 10.9698 9.42705 10.8682 9.52863C10.6633 9.73354 10.3853 9.84866 10.0955 9.84866C9.80562 9.84866 9.52764 9.73354 9.32267 9.52863L6.2315 6.43674C6.02659 6.23176 5.91147 5.95378 5.91147 5.66394C5.91147 5.37411 6.02659 5.09613 6.2315 4.89115C6.33308 4.78965 6.41365 4.66912 6.46863 4.53646C6.5236 4.40379 6.5519 4.2616 6.5519 4.118C6.5519 3.9744 6.5236 3.8322 6.46863 3.69954C6.41365 3.56688 6.33308 3.44635 6.2315 3.34484L4.29898 1.41305C4.094 1.20813 3.81603 1.09302 3.52619 1.09302C3.23635 1.09302 2.95838 1.20813 2.7534 1.41305L2.29432 1.8714C1.76644 2.39912 1.43439 3.09113 1.35304 3.8331C1.27168 4.57507 1.4459 5.32259 1.84689 5.95215L1.85126 5.95943C3.96901 9.09271 6.66776 11.791 9.80142 13.9081V13.9081Z" stroke="#FFB74D" stroke-width="2" stroke-linecap="round" stroke-linejoin="round"/>
</g>
</svg>
