<svg width="14" height="14" viewBox="0 0 14 14" fill="none" xmlns="http://www.w3.org/2000/svg">
<g id="ph:x-bold">
<path id="Vector" d="M11.1257 10.2251C11.2452 10.3446 11.3123 10.5067 11.3123 10.6757C11.3123 10.8447 11.2452 11.0068 11.1257 11.1263C11.0062 11.2458 10.8441 11.3129 10.6751 11.3129C10.5061 11.3129 10.344 11.2458 10.2245 11.1263L6.85884 7.75975L3.49212 11.1252C3.37262 11.2447 3.21054 11.3118 3.04153 11.3118C2.87253 11.3118 2.71044 11.2447 2.59094 11.1252C2.47143 11.0057 2.4043 10.8436 2.4043 10.6746C2.4043 10.5056 2.47143 10.3436 2.59094 10.2241L5.95766 6.85862L2.592 3.4921C2.47249 3.3726 2.40536 3.21053 2.40536 3.04153C2.40536 2.87254 2.47249 2.71047 2.592 2.59097C2.7115 2.47147 2.87359 2.40434 3.04259 2.40434C3.2116 2.40434 3.37368 2.47147 3.49318 2.59097L6.85884 5.95749L10.2256 2.59044C10.3451 2.47094 10.5071 2.40381 10.6762 2.40381C10.8452 2.40381 11.0072 2.47094 11.1267 2.59044C11.2462 2.70994 11.3134 2.87201 11.3134 3.041C11.3134 3.21 11.2462 3.37207 11.1267 3.49157L7.76003 6.85862L11.1257 10.2251Z" fill="#424242"/>
</g>
</svg>
