<svg width="22" height="22" viewBox="0 0 22 22" fill="none" xmlns="http://www.w3.org/2000/svg">
<g id="ph:x-bold">
<path id="Vector" d="M17.4824 16.068C17.6702 16.2558 17.7757 16.5105 17.7757 16.776C17.7757 17.0416 17.6702 17.2963 17.4824 17.4841C17.2946 17.6718 17.0399 17.7773 16.7743 17.7773C16.5087 17.7773 16.254 17.6718 16.0662 17.4841L10.7773 12.1938L5.48678 17.4824C5.29899 17.6702 5.04429 17.7757 4.77871 17.7757C4.51313 17.7757 4.25843 17.6702 4.07064 17.4824C3.88284 17.2946 3.77734 17.0399 3.77734 16.7744C3.77734 16.5088 3.88284 16.2541 4.07064 16.0663L9.3612 10.7778L4.0723 5.48752C3.88451 5.29973 3.77901 5.04505 3.77901 4.77948C3.77901 4.51392 3.88451 4.25923 4.0723 4.07145C4.2601 3.88367 4.5148 3.77818 4.78038 3.77818C5.04596 3.77818 5.30066 3.88367 5.48845 4.07145L10.7773 9.3617L16.0679 4.07062C16.2557 3.88284 16.5104 3.77734 16.776 3.77734C17.0416 3.77734 17.2963 3.88284 17.484 4.07062C17.6718 4.2584 17.7773 4.51309 17.7773 4.77865C17.7773 5.04421 17.6718 5.2989 17.484 5.48668L12.1935 10.7778L17.4824 16.068Z" fill="#616161"/>
</g>
</svg>
