<svg width="20" height="20" viewBox="0 0 20 20" fill="none" xmlns="http://www.w3.org/2000/svg">
<g id="gg:info">
<g id="Group">
<path id="Vector" d="M9.16602 9.14998C9.16602 8.92897 9.25381 8.717 9.41009 8.56072C9.56637 8.40444 9.77834 8.31665 9.99935 8.31665C10.2204 8.31665 10.4323 8.40444 10.5886 8.56072C10.7449 8.717 10.8327 8.92897 10.8327 9.14998V14.15C10.8327 14.371 10.7449 14.583 10.5886 14.7392C10.4323 14.8955 10.2204 14.9833 9.99935 14.9833C9.77834 14.9833 9.56637 14.8955 9.41009 14.7392C9.25381 14.583 9.16602 14.371 9.16602 14.15V9.14998ZM9.99935 5.04248C9.77834 5.04248 9.56637 5.13028 9.41009 5.28656C9.25381 5.44284 9.16602 5.6548 9.16602 5.87581C9.16602 6.09683 9.25381 6.30879 9.41009 6.46507C9.56637 6.62135 9.77834 6.70915 9.99935 6.70915C10.2204 6.70915 10.4323 6.62135 10.5886 6.46507C10.7449 6.30879 10.8327 6.09683 10.8327 5.87581C10.8327 5.6548 10.7449 5.44284 10.5886 5.28656C10.4323 5.13028 10.2204 5.04248 9.99935 5.04248Z" fill="#BDBDBD"/>
<path id="Vector_2" fill-rule="evenodd" clip-rule="evenodd" d="M9.99935 1.6665C5.39685 1.6665 1.66602 5.39734 1.66602 9.99984C1.66602 14.6023 5.39685 18.3332 9.99935 18.3332C14.6018 18.3332 18.3327 14.6023 18.3327 9.99984C18.3327 5.39734 14.6018 1.6665 9.99935 1.6665ZM3.33268 9.99984C3.33268 11.7679 4.03506 13.4636 5.2853 14.7139C6.53555 15.9641 8.23124 16.6665 9.99935 16.6665C11.7675 16.6665 13.4632 15.9641 14.7134 14.7139C15.9636 13.4636 16.666 11.7679 16.666 9.99984C16.666 8.23173 15.9636 6.53603 14.7134 5.28579C13.4632 4.03555 11.7675 3.33317 9.99935 3.33317C8.23124 3.33317 6.53555 4.03555 5.2853 5.28579C4.03506 6.53603 3.33268 8.23173 3.33268 9.99984Z" fill="#BDBDBD"/>
</g>
</g>
</svg>
