<svg width="28" height="28" viewBox="0 0 28 28" fill="none" xmlns="http://www.w3.org/2000/svg">
<g id="ic:round-plus">
<path id="Vector" d="M21.0007 15.1644H15.1673V20.9977C15.1673 21.3071 15.0444 21.6039 14.8256 21.8227C14.6068 22.0415 14.3101 22.1644 14.0007 22.1644C13.6912 22.1644 13.3945 22.0415 13.1757 21.8227C12.9569 21.6039 12.834 21.3071 12.834 20.9977V15.1644H7.00065C6.69123 15.1644 6.39449 15.0415 6.17569 14.8227C5.9569 14.6039 5.83398 14.3071 5.83398 13.9977C5.83398 13.6883 5.9569 13.3916 6.17569 13.1728C6.39449 12.954 6.69123 12.8311 7.00065 12.8311H12.834V6.99772C12.834 6.6883 12.9569 6.39156 13.1757 6.17276C13.3945 5.95397 13.6912 5.83105 14.0007 5.83105C14.3101 5.83105 14.6068 5.95397 14.8256 6.17276C15.0444 6.39156 15.1673 6.6883 15.1673 6.99772V12.8311H21.0007C21.3101 12.8311 21.6068 12.954 21.8256 13.1728C22.0444 13.3916 22.1673 13.6883 22.1673 13.9977C22.1673 14.3071 22.0444 14.6039 21.8256 14.8227C21.6068 15.0415 21.3101 15.1644 21.0007 15.1644Z" fill="#FFB74D"/>
</g>
</svg>
