<svg width="28" height="28" viewBox="0 0 28 28" fill="none" xmlns="http://www.w3.org/2000/svg">
<path d="M19.8147 17.3902C19.4636 16.1285 18.7047 15.0158 17.6543 14.2229C16.604 13.4299 15.3202 13.0005 14 13.0005C12.6798 13.0005 11.396 13.4299 10.3456 14.2229C9.29528 15.0158 8.53635 16.1285 8.18527 17.3902L7.34863 20.3969C7.19841 20.9367 7.176 21.5036 7.28314 22.0535C7.39028 22.6033 7.62408 23.1212 7.96631 23.5667C8.30853 24.0123 8.74994 24.3734 9.25611 24.622C9.76227 24.8706 10.3195 25 10.8844 25H17.1156C17.6805 25 18.2377 24.8706 18.7439 24.622C19.25 24.3734 19.6914 24.0123 20.0337 23.5667C20.3759 23.1212 20.6097 22.6033 20.7168 22.0535C20.824 21.5036 20.8016 20.9367 20.6513 20.3969L19.8147 17.3902ZM18.8665 22.6854C18.662 22.9537 18.3974 23.1711 18.0935 23.3204C17.7896 23.4697 17.4547 23.5468 17.1156 23.5455H10.8844C10.5455 23.5455 10.2111 23.4679 9.90741 23.3188C9.6037 23.1696 9.33886 22.9529 9.13352 22.6856C8.92818 22.4182 8.7879 22.1075 8.72361 21.7776C8.65933 21.4477 8.67278 21.1075 8.76292 20.7836L9.59956 17.777C9.86525 16.8222 10.4396 15.9801 11.2345 15.3801C12.0294 14.78 13.0009 14.455 14 14.455C14.9991 14.455 15.9706 14.78 16.7655 15.3801C17.5604 15.9801 18.1347 16.8222 18.4004 17.777L19.2371 20.7836C19.3285 21.1074 19.3426 21.4478 19.2783 21.778C19.214 22.1081 19.073 22.4188 18.8665 22.6856V22.6854ZM8.96126 14.0146C9.0889 13.2237 8.91962 12.3771 8.48443 11.63C8.04924 10.883 7.39416 10.3143 6.63963 10.0285C5.8316 9.72254 5.00743 9.77127 4.31815 10.1656C2.94788 10.9499 2.58728 12.883 3.51447 14.4747C3.94953 15.2218 4.60465 15.7906 5.35918 16.0763C5.69342 16.2054 6.04869 16.2728 6.40741 16.275C6.85431 16.2766 7.29366 16.1607 7.68066 15.9391C8.36954 15.5447 8.82435 14.8613 8.96126 14.0146ZM7.51245 13.7847C7.44688 14.1906 7.24607 14.5083 6.947 14.6795C6.64793 14.8507 6.26996 14.8641 5.88254 14.7175C5.4418 14.5507 5.052 14.2061 4.78488 13.7475C4.27138 12.8657 4.39343 11.8021 5.05172 11.4252C5.21721 11.3321 5.40462 11.2842 5.59489 11.2862C5.77336 11.2881 5.95 11.3222 6.11609 11.387C6.55683 11.554 6.94663 11.8984 7.21375 12.3571C7.48086 12.8158 7.5869 13.3229 7.51245 13.7847ZM9.12017 11.0014C9.64109 11.4143 10.236 11.6293 10.8376 11.6292C11.0177 11.6292 11.1974 11.61 11.3735 11.5719C12.9196 11.2387 13.8571 9.50642 13.4632 7.71037C13.2785 6.86741 12.8293 6.12785 12.1984 5.62783C11.5228 5.0924 10.7226 4.88973 9.94507 5.05735C8.39897 5.39052 7.46151 7.1228 7.8553 8.91885C8.04012 9.76186 8.48934 10.5014 9.12017 11.0014ZM10.2567 6.47865C10.3279 6.46341 10.4007 6.45579 10.4736 6.45592C10.7463 6.45592 11.0268 6.56169 11.2822 6.76414C11.6507 7.05617 11.9161 7.50201 12.0296 8.01958C12.2478 9.01476 11.8046 9.99076 11.0618 10.1508C10.7244 10.2236 10.3601 10.1223 10.0364 9.86563C9.66787 9.57355 9.40245 9.12771 9.28902 8.61019C9.07074 7.61473 9.51391 6.63873 10.2567 6.47865ZM23.6818 10.1656C22.9928 9.77127 22.1682 9.72254 21.3603 10.0285C20.6058 10.3142 19.9507 10.883 19.5156 11.63C19.0806 12.3771 18.9113 13.2239 19.0388 14.0146C19.1755 14.8613 19.6303 15.5447 20.3194 15.9391C20.7064 16.1607 21.1458 16.2766 21.5927 16.275C21.9514 16.2728 22.3067 16.2054 22.6409 16.0763C23.3954 15.7906 24.0505 15.2218 24.4856 14.4747C25.4127 12.883 25.0521 10.9499 23.6818 10.1656ZM23.2151 13.7475C22.948 14.2061 22.5582 14.5507 22.1174 14.7175C21.7302 14.8643 21.3521 14.8508 21.0531 14.6795C20.754 14.5082 20.5533 14.1906 20.4876 13.7847C20.4131 13.3229 20.5191 12.8159 20.7862 12.3575C21.0534 11.8991 21.4431 11.5544 21.8839 11.3874C22.05 11.3226 22.2266 11.2884 22.4051 11.2865C22.5954 11.2844 22.7828 11.3324 22.9483 11.4255C23.6065 11.802 23.7287 12.8655 23.2151 13.7475ZM16.6265 11.5719C16.8026 11.61 16.9822 11.6292 17.1624 11.6292C17.764 11.6292 18.3591 11.4143 18.8798 11.0014C19.5106 10.5015 19.9599 9.76186 20.1447 8.9189C20.5385 7.12285 19.601 5.39057 18.0549 5.0574C17.2775 4.88986 16.4772 5.0924 15.8016 5.62787C15.1707 6.12785 14.7215 6.86745 14.5367 7.71037C14.1429 9.50642 15.0804 11.2387 16.6265 11.5719ZM15.9704 8.01935C16.0838 7.50178 16.3493 7.05576 16.7177 6.76391C16.9732 6.56147 17.2537 6.4557 17.5264 6.4557C17.5993 6.45557 17.672 6.46318 17.7433 6.47842C18.4861 6.63851 18.9292 7.61473 18.711 8.60969C18.5975 9.12725 18.3321 9.57328 17.9637 9.86517C17.64 10.1218 17.276 10.2231 16.9382 10.1504C16.1953 9.99053 15.7522 9.01439 15.9704 8.01935Z" fill="currentColor"/>
</svg>
